PathFileType	4	(X/Y/Z)	RBDS001\RBDS001runT35.trc
DataRate	CameraRate	NumFrames	NumMarkers	Units	OrigDataRate	OrigDataStartFrame	OrigNumFrames
150.000000	150.000000	4	32	mm	150.000000	2250	4500
Frame#	Time	L.ASIS			L.Heel.Bottom			L.Heel.Lateral			L.Heel.Top			L.Iliac.Crest			L.MT1			L.MT5			L.PSIS			L.Shank.Bottom.Lateral			L.Shank.Bottom.Medial			L.Shank.Top.Lateral			L.Shank.Top.Medial			L.Thigh.Bottom.Lateral			L.Thigh.Bottom.Medial			L.Thigh.Top.Lateral			L.Thigh.Top.Medial			R.ASIS			R.Heel.Bottom			R.Heel.Lateral			R.Heel.Top			R.Iliac.Crest			R.MT1			R.MT5			R.PSIS			R.Shank.Bottom.Lateral			R.Shank.Bottom.Medial			R.Shank.Top.Lateral			R.Shank.Top.Medial			R.Thigh.Bottom.Lateral			R.Thigh.Bottom.Medial			R.Thigh.Top.Lateral			R.Thigh.Top.Medial			
		X1	Y1	Z1	X2	Y2	Z2	X3	Y3	Z3	X4	Y4	Z4	X5	Y5	Z5	X6	Y6	Z6	X7	Y7	Z7	X8	Y8	Z8	X9	Y9	Z9	X10	Y10	Z10	X11	Y11	Z11	X12	Y12	Z12	X13	Y13	Z13	X14	Y14	Z14	X15	Y15	Z15	X16	Y16	Z16	X17	Y17	Z17	X18	Y18	Z18	X19	Y19	Z19	X20	Y20	Z20	X21	Y21	Z21	X22	Y22	Z22	X23	Y23	Z23	X24	Y24	Z24	X25	Y25	Z25	X26	Y26	Z26	X27	Y27	Z27	X28	Y28	Z28	X29	Y29	Z29	X30	Y30	Z30	X31	Y31	Z31	X32	Y32	Z32	

2251	15	2449.760806907785	1017.14991609002	923.9916926723416	1776.822090454247	514.853176649054	968.0256894838211	1783.227307757781	482.7785721525294	928.5965557151585	1821.77397277424	501.1941232278753	965.5064313046531	2402.957777441586	1094.222019471571	893.9555983566863	1778.082282479392	295.6973174237484	1018.121483119278	1757.687128018774	323.0774211148879	914.277169243134	2279.303792733606	1068.383536618634	987.2693359362743	1916.626319232003	449.6171910917549	912.7505155221841	1906.182830826876	489.3463637590215	944.606405075039	1992.748919806838	474.6335942950338	902.2624733291839	1986.313940678628	515.4884520510366	936.1360641328747	2270.872011398812	621.9033372548915	892.4651362842825	2231.826779608897	634.131394806047	953.7226234470093	2274.024578718826	731.2926389192606	876.9905988733403	2240.776213070369	743.058859851477	936.139464452578	2436.604808589369	1024.605852086312	1130.864949080504	2442.732462470651	41.94367669901457	1039.012386885094	2474.668115479262	48.7275386998887	1083.208817277499	2455.790485863494	88.42526415703394	1046.997878408039	2375.105819745736	1093.98834100474	1163.896067619746	2645.791386084455	43.23400509994017	1097.27485676613	2663.616416267815	63.91811137182196	990.7122856500821	2277.648828454552	1066.582090012702	1063.349929548179	2526.873491014318	179.5531983851669	1107.669318586256	2481.770489849963	186.2889098637311	1077.244218454329	2521.411299844	257.3736656332331	1130.102182973016	2478.243074940244	264.021270686624	1097.687984444748	2495.298539541231	619.3726021564685	1163.160659104997	2442.841458054432	595.0635199081016	1117.384743865966	2435.407767880205	711.4273770355009	1179.362471738261	2385.25895782311	687.1548919629477	1137.454484608844	
2252	15.00666666666667	2448.543485820624	1012.110811706066	923.5823462048402	1793.360701556259	526.1163154868482	966.3368634917462	1798.070933887023	494.1041599681652	926.5607874208933	1837.624170849404	510.1709680080189	963.7365730708303	2401.101074354538	1088.328514014253	892.9573103908077	1783.227245465181	305.805284024267	1013.275488476827	1764.315761269987	335.7730007071493	909.880596793818	2277.644155745667	1061.760125450477	986.4571744472895	1928.892019349472	454.7928503995418	910.3697357973076	1919.997582747732	494.8288093913322	942.2999975554624	2005.991376423489	476.6947892460171	900.1130630302679	2001.147929649479	517.749878871907	934.1122390628132	2279.153931494853	613.4736144718246	892.0742509401315	2240.466643942344	624.2405351418511	953.8369661458373	2279.039307674409	722.9749510268765	877.1702475678197	2246.113181285451	733.5350616610805	936.7815343397019	2435.09621142559	1020.020806954886	1131.206726025444	2421.581825524578	40.45705055362841	1036.732858172032	2453.338402935133	48.44868688383389	1080.758148950366	2435.064379917446	87.10137723618354	1043.200771674319	2373.36509852154	1088.375172223625	1163.571096343695	2624.582207155596	42.69427312574562	1095.771959951879	2643.267337088241	59.89241162994525	988.5429099675071	2275.746678435654	1060.669162608004	1062.463595687399	2511.529064947259	176.2448256866656	1104.293220711748	2466.420211096909	185.1011734557321	1074.47424586239	2509.630884447522	254.0377498215952	1127.37542700592	2466.424798719304	262.7309764878087	1095.528771740247	2493.913215268466	615.1024311975326	1161.699891006399	2441.586070345256	591.0279795225179	1115.734827559249	2434.03345310955	707.1330800507773	1178.080943911972	2383.877641493216	682.8663784863859	1136.123520589207	
2253	15.01333333333333	2447.15364199232	1006.992533842886	923.2170257578219	1810.556933797576	535.8769459539072	964.7878201491085	1813.939385966979	504.1005774152279	924.6269824140395	1854.175559385505	517.9699580705662	962.2278742993424	2399.100090754385	1082.326306088637	891.9821866554048	1790.406243393123	314.7152096115723	1008.276681705552	1773.196892480026	347.2255097297952	905.3357394361814	2275.79833982131	1055.189641956692	985.7726512462513	1942.222269855896	459.3326178245474	908.1047671472194	1934.766610096916	499.5859458231415	940.1063378963111	2020.119583525922	478.3351273651393	898.0243536915198	2016.729580738874	519.5186477845641	932.158814919195	2287.835708712489	605.3444456360293	891.5164670333218	2249.310258076473	614.6769001988532	953.600572031918	2284.392207727341	714.8494189442486	877.1092919691404	2251.628012844685	724.229231956959	937.0669909166645	2433.44996922793	1015.327901312478	1131.547109399211	2398.926125436209	39.07635123872839	1034.722812961247	2430.550979923667	48.42647695014433	1078.52745400036	2412.692857594994	85.91830996460976	1039.615818500215	2371.638539511204	1082.73550098156	1163.294228614253	2601.914145997702	42.62926298457639	1094.33968837771	2621.316581622324	56.61730538573086	986.5420709174032	2273.692691425484	1054.899275911442	1061.685174986977	2494.649999466523	173.3220023372363	1100.860694786833	2449.582956628764	184.3863634058874	1071.717222633301	2496.495531813232	250.9817778139047	1124.566414944127	2453.305263550301	261.7999463871158	1093.335903141993	2491.830757579832	610.7108257854702	1160.235485538874	2439.683674788803	587.0403357005108	1113.928184474328	2432.088354050479	702.7867973088885	1176.863183509291	2381.964061743313	678.6905106067336	1134.702575987506	
2254	15.02	2445.583988015012	1001.926447686695	922.9071575919212	1828.004760330239	544.0632224045546	963.3107600585867	1830.500240638063	512.6505423217485	922.7622286571229	1871.06922453578	524.5930295123122	960.9313836066007	2396.96877520625	1076.382621120828	891.047946588271	1799.629170458167	322.3053021531048	1003.266865689721	1784.289606181412	357.1730617576247	900.7555279409578	2273.777128909956	1048.876982872094	985.1967904598181	1956.475222148277	463.2534564009592	905.9665556975476	1950.322850337134	503.6457726884457	938.0409700995542	2035.009686429806	479.6254629787143	896.0176590159568	2032.916299069272	520.8736128508679	930.2994991231677	2296.976820922156	597.6864918999919	890.7269756751416	2258.385276884866	605.5804259336413	952.9334353193543	2290.14080204793	707.0811302906706	876.7569917989078	2257.328375993925	715.2736943723328	936.9108484311527	2431.671389595388	1010.667240633934	1131.853072281739	2375.266884973671	37.8662795746689	1033.005929564285	2406.810367800951	48.6056185622563	1076.561147220778	2389.193971857485	84.91352597309455	1036.375439561237	2369.912827501408	1077.252436920651	1163.050132544138	2578.268586271307	42.92221116447417	1093.017146224163	2598.237599131435	54.12887761499205	984.7735379882165	2271.508759857372	1049.455216715337	1061.000983956405	2476.568889929024	170.8187165634543	1097.516335617374	2431.601157247804	184.099777857441	1069.100178152615	2482.206634334641	248.2235706845358	1121.784044945838	2439.09956280662	261.1719765470168	1091.196867990352	2488.913189707873	606.2595517027714	1158.767051914012	2436.966155532377	583.1617387598818	1111.995988454734	2429.474351700617	698.4809688100161	1175.695825161932	2379.403452649416	674.7316192531683	1133.200315327594	
